<svg preserveAspectRatio="none" width="100%" height="100%" overflow="visible" style="display: block;" viewBox="0 0 140 140" fill="none" xmlns="http://www.w3.org/2000/svg">
<g id="Frame">
<rect width="140" height="140" fill="#0A0A0A"/>
<path id="Vector" d="M18.1025 18.2528C21.8752 14.4801 27.5146 12.9689 34.6562 13.7899C41.8013 14.6113 50.3826 17.7636 59.912 23.2293L59.915 23.2303C61.235 23.9798 61.6888 25.6628 60.9335 26.993C60.1837 28.3135 58.4879 28.7656 57.1728 28.0125H57.1738C49.2143 23.4456 41.8866 20.5678 35.8388 19.5213C29.8188 18.4797 24.9145 19.2318 21.998 22.1483H21.997C19.7183 24.4344 18.7596 27.972 18.9706 32.327C19.182 36.6895 20.568 41.9575 23.0868 47.828C25.4155 53.2569 28.6219 58.9365 32.4794 64.661L32.9433 65.3504L33.4511 64.6932C37.7144 59.1768 42.5927 53.618 48.0302 48.1805V48.1795C62.6311 33.5719 78.0758 23.0133 91.3974 17.6659C98.0591 14.9918 104.162 13.6322 109.348 13.701C114.528 13.7699 118.757 15.2616 121.748 18.2528C127.634 24.1391 128.023 34.8093 122.39 48.6454L121.825 49.994C116.052 63.4681 105.4 78.3773 91.8212 91.9559C88.6584 95.1051 85.3877 98.1572 82.0917 100.99L82.0908 100.991C80.9475 101.977 79.2057 101.855 78.205 100.697C77.2183 99.5523 77.344 97.8004 78.497 96.8153L78.498 96.8143C81.6959 94.0693 84.8659 91.1202 87.9247 88.0614C100.992 74.9946 111.242 60.7 116.763 47.8143C119.281 41.9372 120.667 36.666 120.879 32.3036C121.09 27.949 120.132 24.4142 117.852 22.1346L117.851 22.1336C115.075 19.3613 110.894 18.5368 105.976 19.1112C101.051 19.6865 95.2768 21.6741 89.162 24.6717C76.927 30.6698 63.1958 40.7786 51.9257 52.0487C46.4357 57.5387 41.234 63.5898 36.6503 69.7792L36.3837 70.1395L36.6533 70.4979C41.1134 76.4265 46.2321 82.3541 51.9257 88.0477C63.2024 99.3243 76.937 109.439 89.1718 115.44C95.2867 118.44 101.06 120.429 105.984 121.004C110.901 121.578 115.079 120.751 117.851 117.974L117.852 117.975C120.769 115.059 121.516 110.146 120.47 104.12C119.418 98.0654 116.533 90.7309 111.959 82.7713C111.207 81.4564 111.659 79.7612 112.979 79.0116L112.985 79.0086C114.299 78.2454 115.992 78.697 116.742 80.0174L116.743 80.0194C122.223 89.5626 125.382 98.1545 126.207 105.306C127.031 112.454 125.521 118.097 121.749 121.87C118.661 124.945 114.303 126.521 108.842 126.521C103.494 126.521 97.1232 125.004 89.9921 121.948H89.9911C76.5031 116.161 61.5947 105.521 48.0165 91.9432C42.7021 86.6288 37.8374 81.0972 33.5331 75.5262L33.0243 74.867L32.5605 75.5584C26.7103 84.2755 22.2513 92.9856 20.1445 100.43C18.0511 107.826 18.2221 114.2 21.998 117.975C24.9432 120.92 29.9008 121.663 35.9853 120.582C42.0981 119.496 49.5045 116.545 57.5458 111.876L57.5449 111.875C58.7897 111.159 60.3479 111.512 61.1659 112.64L61.3193 112.876C62.0829 114.203 61.6315 115.886 60.3202 116.648C48.9328 123.241 38.8961 126.549 31.0214 126.549C25.5876 126.549 21.217 124.985 18.1025 121.871C13.6255 117.394 12.5057 110.121 14.5019 101.083C16.4943 92.0619 21.5678 81.419 29.2577 70.3983L29.498 70.0545L29.2577 69.7108C24.5725 63.0099 20.7389 56.3471 18.0243 49.995V49.994C11.8076 35.5019 12.0128 24.3424 18.1025 18.2528ZM69.9316 59.4579C75.5959 59.4579 80.2183 63.9132 80.5136 69.5106L80.5292 70.0565C80.5283 75.904 75.7793 80.6522 69.9316 80.6522C64.0833 80.6522 59.3339 75.9028 59.3339 70.0545C59.334 64.2063 64.0833 59.4579 69.9316 59.4579Z" fill="var(--fill-0, #D4FF5B)" stroke="var(--stroke-0, #0A0A0A)" stroke-width="1.2"/>
</g>
</svg>
