<svg preserveAspectRatio="none" width="100%" height="100%" overflow="visible" style="display: block;" viewBox="0 0 74 74" fill="none" xmlns="http://www.w3.org/2000/svg">
<g id="Frame">
<g id="Union">
<mask id="path-1-inside-1_0_4" fill="white">
<path d="M55.4999 15.417H49.3329V28.5947L64.4501 60.3408C64.6739 60.8108 64.7759 61.3299 64.745 61.8496C64.7141 62.3691 64.552 62.8724 64.2743 63.3125C63.9963 63.7527 63.6111 64.1159 63.1551 64.3672C62.6992 64.6185 62.1865 64.7501 61.6659 64.75H12.3329C11.8124 64.7501 11.3004 64.6183 10.8446 64.3672C10.3886 64.1159 10.0034 63.7527 9.72545 63.3125C9.44757 62.8724 9.28563 62.3692 9.25474 61.8496C9.22385 61.3299 9.32482 60.8108 9.54869 60.3408L24.6659 28.5947V15.417H18.4999V9.25H55.4999V15.417ZM30.8329 29.292C30.833 29.7504 30.731 30.2032 30.534 30.6172L17.2167 58.583H56.7821L43.4657 30.6172C43.2687 30.2031 43.1658 29.7505 43.1659 29.292V15.417H30.8329V29.292ZM47.7919 53.958H36.9999V47.792H47.7919V53.958ZM41.6249 44.708H30.8329V38.542H41.6249V44.708Z"/>
</mask>
<path d="M55.4999 15.417H49.3329V28.5947L64.4501 60.3408C64.6739 60.8108 64.7759 61.3299 64.745 61.8496C64.7141 62.3691 64.552 62.8724 64.2743 63.3125C63.9963 63.7527 63.6111 64.1159 63.1551 64.3672C62.6992 64.6185 62.1865 64.7501 61.6659 64.75H12.3329C11.8124 64.7501 11.3004 64.6183 10.8446 64.3672C10.3886 64.1159 10.0034 63.7527 9.72545 63.3125C9.44757 62.8724 9.28563 62.3692 9.25474 61.8496C9.22385 61.3299 9.32482 60.8108 9.54869 60.3408L24.6659 28.5947V15.417H18.4999V9.25H55.4999V15.417ZM30.8329 29.292C30.833 29.7504 30.731 30.2032 30.534 30.6172L17.2167 58.583H56.7821L43.4657 30.6172C43.2687 30.2031 43.1658 29.7505 43.1659 29.292V15.417H30.8329V29.292ZM47.7919 53.958H36.9999V47.792H47.7919V53.958ZM41.6249 44.708H30.8329V38.542H41.6249V44.708Z" fill="var(--fill-0, #D4FF5B)"/>
<path d="M55.4999 15.417V16.717H56.7999V15.417H55.4999ZM49.3329 15.417V14.117H48.0329V15.417H49.3329ZM49.3329 28.5947H48.0329V28.8884L48.1592 29.1536L49.3329 28.5947ZM64.4501 60.3408L63.2763 60.8997L63.2764 60.8998L64.4501 60.3408ZM64.745 61.8496L66.0427 61.9267V61.9267L64.745 61.8496ZM64.2743 63.3125L65.3735 64.0066L65.3736 64.0064L64.2743 63.3125ZM63.1551 64.3672L63.7826 65.5057L63.7826 65.5057L63.1551 64.3672ZM61.6659 64.75L61.6661 63.45H61.6659V64.75ZM12.3329 64.75V63.45H12.3327L12.3329 64.75ZM10.8446 64.3672L10.2171 65.5057L10.2173 65.5058L10.8446 64.3672ZM9.72545 63.3125L8.62619 64.0065L8.62626 64.0066L9.72545 63.3125ZM9.25474 61.8496L7.95703 61.9267L7.95703 61.9268L9.25474 61.8496ZM9.54869 60.3408L10.7224 60.8998L10.7224 60.8997L9.54869 60.3408ZM24.6659 28.5947L25.8396 29.1536L25.9659 28.8884V28.5947H24.6659ZM24.6659 15.417H25.9659V14.117H24.6659V15.417ZM18.4999 15.417H17.1999V16.717H18.4999V15.417ZM18.4999 9.25V7.95H17.1999V9.25H18.4999ZM55.4999 9.25H56.7999V7.95H55.4999V9.25ZM30.8329 29.292H29.5329V29.2923L30.8329 29.292ZM30.534 30.6172L31.7078 31.1761L31.708 31.1756L30.534 30.6172ZM17.2167 58.583L16.0429 58.0241L15.1577 59.883H17.2167V58.583ZM56.7821 58.583V59.883H58.841L57.9558 58.0241L56.7821 58.583ZM43.4657 30.6172L42.2918 31.1757L42.292 31.1761L43.4657 30.6172ZM43.1659 29.292L44.4659 29.2923V29.292H43.1659ZM43.1659 15.417H44.4659V14.117H43.1659V15.417ZM30.8329 15.417V14.117H29.5329V15.417H30.8329ZM47.7919 53.958V55.258H49.0919V53.958H47.7919ZM36.9999 53.958H35.6999V55.258H36.9999V53.958ZM36.9999 47.792V46.492H35.6999V47.792H36.9999ZM47.7919 47.792H49.0919V46.492H47.7919V47.792ZM41.6249 44.708V46.008H42.9249V44.708H41.6249ZM30.8329 44.708H29.5329V46.008H30.8329V44.708ZM30.8329 38.542V37.242H29.5329V38.542H30.8329ZM41.6249 38.542H42.9249V37.242H41.6249V38.542ZM55.4999 15.417V14.117H49.3329V15.417V16.717H55.4999V15.417ZM49.3329 15.417H48.0329V28.5947H49.3329H50.6329V15.417H49.3329ZM49.3329 28.5947L48.1592 29.1536L63.2763 60.8997L64.4501 60.3408L65.6238 59.7819L50.5066 28.0358L49.3329 28.5947ZM64.4501 60.3408L63.2764 60.8998C63.4064 61.1728 63.4651 61.4732 63.4473 61.7725L64.745 61.8496L66.0427 61.9267C66.0867 61.1867 65.9414 60.4489 65.6237 59.7818L64.4501 60.3408ZM64.745 61.8496L63.4473 61.7725C63.4294 62.0727 63.3357 62.3639 63.1749 62.6186L64.2743 63.3125L65.3736 64.0064C65.7683 63.381 65.9988 62.6655 66.0427 61.9267L64.745 61.8496ZM64.2743 63.3125L63.1751 62.6184C63.0142 62.8732 62.7911 63.0835 62.5276 63.2287L63.1551 64.3672L63.7826 65.5057C64.4311 65.1483 64.9785 64.6321 65.3735 64.0066L64.2743 63.3125ZM63.1551 64.3672L62.5277 63.2286C62.2643 63.3738 61.9676 63.4501 61.6661 63.45L61.6659 64.75L61.6657 66.05C62.4054 66.0501 63.134 65.8632 63.7826 65.5057L63.1551 64.3672ZM61.6659 64.75V63.45H12.3329V64.75V66.05H61.6659V64.75ZM12.3329 64.75L12.3327 63.45C12.0318 63.4501 11.7357 63.3739 11.4719 63.2285L10.8446 64.3672L10.2173 65.5058C10.8652 65.8628 11.593 66.0501 12.3331 66.05L12.3329 64.75ZM10.8446 64.3672L11.4721 63.2286C11.2086 63.0835 10.9856 62.8733 10.8246 62.6184L9.72545 63.3125L8.62626 64.0066C9.02124 64.6321 9.56862 65.1483 10.2171 65.5057L10.8446 64.3672ZM9.72545 63.3125L10.8247 62.6185C10.6639 62.3638 10.5703 62.0729 10.5525 61.7725L9.25474 61.8496L7.95703 61.9268C8.00095 62.6655 8.23122 63.3809 8.62619 64.0065L9.72545 63.3125ZM9.25474 61.8496L10.5525 61.7725C10.5346 61.4715 10.5931 61.1713 10.7224 60.8998L9.54869 60.3408L8.37501 59.7818C8.05659 60.4504 7.91314 61.1883 7.95703 61.9267L9.25474 61.8496ZM9.54869 60.3408L10.7224 60.8997L25.8396 29.1536L24.6659 28.5947L23.4922 28.0358L8.37497 59.7819L9.54869 60.3408ZM24.6659 28.5947H25.9659V15.417H24.6659H23.3659V28.5947H24.6659ZM24.6659 15.417V14.117H18.4999V15.417V16.717H24.6659V15.417ZM18.4999 15.417H19.7999V9.25H18.4999H17.1999V15.417H18.4999ZM18.4999 9.25V10.55H55.4999V9.25V7.95H18.4999V9.25ZM55.4999 9.25H54.1999V15.417H55.4999H56.7999V9.25H55.4999ZM30.8329 29.292L29.5329 29.2923C29.5329 29.5577 29.4739 29.8195 29.3601 30.0588L30.534 30.6172L31.708 31.1756C31.988 30.5868 32.133 29.9432 32.1329 29.2917L30.8329 29.292ZM30.534 30.6172L29.3603 30.0583L16.0429 58.0241L17.2167 58.583L18.3904 59.1419L31.7078 31.1761L30.534 30.6172ZM17.2167 58.583V59.883H56.7821V58.583V57.283H17.2167V58.583ZM56.7821 58.583L57.9558 58.0241L44.6394 30.0583L43.4657 30.6172L42.292 31.1761L55.6084 59.1419L56.7821 58.583ZM43.4657 30.6172L44.6396 30.0587C44.525 29.8178 44.4658 29.556 44.4659 29.2923L43.1659 29.292L41.8659 29.2917C41.8657 29.9451 42.0124 30.5884 42.2918 31.1757L43.4657 30.6172ZM43.1659 29.292H44.4659V15.417H43.1659H41.8659V29.292H43.1659ZM43.1659 15.417V14.117H30.8329V15.417V16.717H43.1659V15.417ZM30.8329 15.417H29.5329V29.292H30.8329H32.1329V15.417H30.8329ZM47.7919 53.958V52.658H36.9999V53.958V55.258H47.7919V53.958ZM36.9999 53.958H38.2999V47.792H36.9999H35.6999V53.958H36.9999ZM36.9999 47.792V49.092H47.7919V47.792V46.492H36.9999V47.792ZM47.7919 47.792H46.4919V53.958H47.7919H49.0919V47.792H47.7919ZM41.6249 44.708V43.408H30.8329V44.708V46.008H41.6249V44.708ZM30.8329 44.708H32.1329V38.542H30.8329H29.5329V44.708H30.8329ZM30.8329 38.542V39.842H41.6249V38.542V37.242H30.8329V38.542ZM41.6249 38.542H40.3249V44.708H41.6249H42.9249V38.542H41.6249Z" fill="var(--stroke-0, #0A0A0A)" mask="url(#path-1-inside-1_0_4)"/>
</g>
</g>
</svg>
