<svg preserveAspectRatio="none" width="100%" height="100%" overflow="visible" style="display: block;" viewBox="0 0 43.3333 43.3333" fill="none" xmlns="http://www.w3.org/2000/svg">
<g id="Frame 1">
<path id="Rectangle 1" d="M0 0H21.6667V0C21.6667 11.9662 11.9662 21.6667 0 21.6667V21.6667V0Z" fill="var(--fill-0, white)" fill-opacity="0.5"/>
<path id="Rectangle 2" d="M21.6667 0H32.5C38.4831 0 43.3333 4.85025 43.3333 10.8333V10.8333C43.3333 16.8164 38.4831 21.6667 32.5 21.6667H21.6667V0Z" fill="var(--fill-0, white)" fill-opacity="0.5"/>
<path id="Subtract" d="M21.667 22.5C17.9851 22.5 15 25.4851 15 29.167C15.0002 32.8487 17.9852 35.833 21.667 35.833V43.333H10.833C4.85007 43.3328 0 38.483 0 32.5C2.57706e-07 26.517 4.85007 21.6672 10.833 21.667H21.667V22.5Z" fill="var(--fill-0, white)" fill-opacity="0.5"/>
<path id="Rectangle 4" d="M21.6667 43.3333C21.6667 31.3672 31.3672 21.6667 43.3333 21.6667V21.6667V43.3333H21.6667V43.3333Z" fill="var(--fill-0, white)" fill-opacity="0.5"/>
</g>
</svg>
