<svg preserveAspectRatio="none" width="100%" height="100%" overflow="visible" style="display: block;" viewBox="0 0 20 20" fill="none" xmlns="http://www.w3.org/2000/svg">
<g id="Mask">
<g id="image fill" clip-path="url(#clip0_0_101)">
<g id="image">
<path id="Vector" d="M17.5 10C17.5 10.345 17.22 10.625 16.875 10.625H10.625V16.875C10.625 17.22 10.345 17.5 10 17.5C9.655 17.5 9.375 17.22 9.375 16.875V10.625H3.125C2.78 10.625 2.5 10.345 2.5 10C2.5 9.655 2.78 9.375 3.125 9.375H9.375V3.125C9.375 2.78 9.655 2.5 10 2.5C10.345 2.5 10.625 2.78 10.625 3.125V9.375H16.875C17.22 9.375 17.5 9.655 17.5 10Z" fill="var(--fill-0, black)"/>
</g>
</g>
</g>
<defs>
<clipPath id="clip0_0_101">
<rect width="20" height="20" fill="white"/>
</clipPath>
</defs>
</svg>
