<svg preserveAspectRatio="none" width="100%" height="100%" overflow="visible" style="display: block;" viewBox="0 0 44 44" fill="none" xmlns="http://www.w3.org/2000/svg">
<g id="Frame">
<path id="Vector" d="M22.3747 4.15094C15.5013 4.15094 9.96226 9.65068 9.96226 16.4752C9.96226 22.3362 19.1402 35.8648 21.7278 39.5179C22.0512 39.9594 22.7385 39.9594 23.062 39.5179C25.6496 35.8648 34.8679 22.3764 34.8679 16.5153C34.8275 9.69082 29.248 4.15094 22.3747 4.15094ZM22.3747 22.8982C18.8167 22.8982 15.9461 20.048 15.9461 16.5153C15.9461 12.9826 18.8571 10.0923 22.3747 10.0923C25.8922 10.0923 28.8032 12.9425 28.8032 16.4752C28.8032 20.0078 25.9326 22.8982 22.3747 22.8982Z" fill="var(--fill-0, white)"/>
</g>
</svg>
