<svg preserveAspectRatio="none" width="100%" height="100%" overflow="visible" style="display: block;" viewBox="0 0 20 20" fill="none" xmlns="http://www.w3.org/2000/svg">
<g id="469908671">
<path id="WzuMf0_io" d="M11.875 3.75C14.015 4.31333 15.6867 5.985 16.25 8.125" stroke="var(--stroke-0, black)" stroke-width="1.25" stroke-linecap="round" stroke-linejoin="round"/>
<path id="Ip9lA74Fq" d="M11.25 6.25C12.5408 6.595 13.405 7.45917 13.75 8.75" stroke="var(--stroke-0, black)" stroke-width="1.25" stroke-linecap="round" stroke-linejoin="round"/>
<g id="Bt6PzjR3u">
</g>
<path id="iWLHlotSZ" d="M12.2183 11.9793C12.3942 11.8627 12.6167 11.8427 12.8108 11.926L16.495 13.5768C16.75 13.6852 16.9033 13.9493 16.87 14.2252C16.6192 16.101 15.0175 17.501 13.125 17.5002C7.25667 17.5002 2.5 12.7427 2.5 6.87517C2.49834 4.98184 3.89917 3.38101 5.775 3.12934C6.05 3.09684 6.31417 3.24934 6.42334 3.50434L8.07417 7.19184C8.15667 7.38434 8.1375 7.60517 8.0225 7.78017L6.35334 9.76517C6.2325 9.94767 6.21667 10.1793 6.31084 10.376C6.95667 11.6985 8.32417 13.0493 9.65084 13.6893C9.84834 13.7827 10.0808 13.7652 10.2625 13.6427L12.2183 11.9793Z" stroke="var(--stroke-0, black)" stroke-width="1.25" stroke-linecap="round" stroke-linejoin="round"/>
</g>
</svg>
