<svg preserveAspectRatio="none" width="100%" height="100%" overflow="visible" style="display: block;" viewBox="0 0 68 68" fill="none" xmlns="http://www.w3.org/2000/svg">
<g id="Frame">
<path id="Vector" d="M56.0572 34.0469L37.9569 16.9306C37.1702 16.1439 35.9897 16.1439 35.2022 16.9306C34.4155 17.7174 34.4155 18.8979 35.2022 19.6846L49.761 33.456H13.3654C12.1849 33.456 11.3982 34.2428 11.3982 35.4239C11.3982 36.6037 12.1849 37.3912 13.3654 37.3912H49.7617L35.2029 51.1625C34.4162 51.9493 34.4162 53.1304 35.2029 53.9172C35.5966 54.3109 36.1869 54.5074 36.5799 54.5074C36.9736 54.5074 37.5639 54.3109 37.9569 53.9172L56.0565 36.8016C56.4502 36.4079 56.6467 35.8176 56.6467 35.4246C56.6474 35.0309 56.4509 34.4406 56.0572 34.0469Z" fill="var(--fill-0, #D4FF5B)"/>
</g>
</svg>
