<svg preserveAspectRatio="none" width="100%" height="100%" overflow="visible" style="display: block;" viewBox="0 0 44 44" fill="none" xmlns="http://www.w3.org/2000/svg">
<g id="Frame">
<path id="Vector" d="M25.2656 12.8219H11.0344L16.3109 7.75156C16.5859 7.49375 16.5859 7.04688 16.3281 6.77188L15.3828 5.775C15.125 5.5 14.6781 5.5 14.4031 5.75781L6.13594 13.6984C5.86094 13.9734 5.86094 14.4203 6.13594 14.6953L14.4031 22.6187C14.6781 22.8766 15.1078 22.8766 15.3828 22.6016L16.3281 21.6047C16.5859 21.3297 16.5859 20.9 16.3109 20.625L11.0344 15.5719H25.2656C30.8687 15.5719 35.4062 20.1609 35.3203 25.7812C35.2344 31.2984 30.6281 35.6812 25.1109 35.6812H11.2234C10.8453 35.6812 10.5359 35.9906 10.5359 36.3687V37.7437C10.5359 38.1219 10.8453 38.4312 11.2234 38.4312H25.1109C32.1578 38.4312 38.0016 32.7937 38.0703 25.7469C38.1391 18.6312 32.3641 12.8219 25.2656 12.8219Z" fill="var(--fill-0, black)"/>
</g>
</svg>
