<svg preserveAspectRatio="none" width="100%" height="100%" overflow="visible" style="display: block;" viewBox="0 0 90 90" fill="none" xmlns="http://www.w3.org/2000/svg">
<g id="Subtract">
<mask id="path-1-inside-1_0_22" fill="white">
<path d="M90 3.46191C74.706 3.46191 62.3076 15.8603 62.3076 31.1543C62.3079 46.4481 74.7061 58.8457 90 58.8457V90H45C20.1472 90 0 69.8528 0 45C3.99493e-06 20.1472 20.1472 0 45 0H90V3.46191Z"/>
</mask>
<path d="M90 3.46191V4.46191H91V3.46191H90ZM62.3076 31.1543H61.3076V31.1543L62.3076 31.1543ZM90 58.8457H91V57.8457H90V58.8457ZM90 90V91H91V90H90ZM0 45H-1V45H0ZM90 0H91V-1H90V0ZM90 3.46191V2.46191C74.1537 2.46191 61.3076 15.308 61.3076 31.1543H62.3076H63.3076C63.3076 16.4125 75.2582 4.46191 90 4.46191V3.46191ZM62.3076 31.1543L61.3076 31.1543C61.3079 47.0005 74.1539 59.8457 90 59.8457V58.8457V57.8457C75.2584 57.8457 63.3079 45.8958 63.3076 31.1543L62.3076 31.1543ZM90 58.8457H89V90H90H91V58.8457H90ZM90 90V89H45V90V91H90V90ZM45 90V89C20.6995 89 1 69.3005 1 45H0H-1C-1 70.4051 19.5949 91 45 91V90ZM0 45H1C1 20.6995 20.6995 1 45 1V0V-1C19.5949 -1 -0.999996 19.5949 -1 45H0ZM45 0V1H90V0V-1H45V0ZM90 0H89V3.46191H90H91V0H90Z" fill="var(--stroke-0, white)" mask="url(#path-1-inside-1_0_22)"/>
</g>
</svg>
