<svg preserveAspectRatio="none" width="100%" height="100%" overflow="visible" style="display: block;" viewBox="0 0 20 20" fill="none" xmlns="http://www.w3.org/2000/svg">
<g id="469908671">
<path id="Vector" d="M18.25 2.80005H1.75C1.3 2.80005 1 3.10005 1 3.55005V16.375C1 16.825 1.3 17.125 1.75 17.125H18.25C18.7 17.125 19 16.825 19 16.375V3.55005C19 3.17505 18.625 2.80005 18.25 2.80005ZM17.5 4.30005V5.80005L10.6 10.375C10.225 10.6 9.775 10.6 9.4 10.375L2.5 5.87505V4.37505H17.5V4.30005ZM2.5 15.7V7.67505L8.65 11.8C9.1 12.025 9.55 12.175 10 12.175C10.45 12.175 10.975 12.025 11.425 11.8L17.5 7.67505V15.7H2.5Z" fill="var(--fill-0, white)"/>
</g>
</svg>
